<svg width="30.000000" height="30.000000" viewBox="0 0 30 30" fill="none" xmlns="http://www.w3.org/2000/svg" xmlns:xlink="http://www.w3.org/1999/xlink">
	<desc>
			Created with Pixso.
	</desc>
	<defs/>
	<path id="Снимок экрана 2023-11-01 в 17.22 1 (Traced)" d="M14.2621 0.311646C14.1154 0.483032 13.1053 2.53357 12.0178 4.86835C10.6656 7.77124 9.96277 9.13654 9.79468 9.1864C9.65955 9.22656 7.56531 9.55786 5.14087 9.92273C0.918213 10.5582 0.717651 10.6018 0.371094 10.9618C-0.359741 11.7206 -0.328003 11.769 3.45752 15.6601L6.90588 19.2047L6.15259 23.8355C5.39771 28.4756 5.33374 29.0128 5.48572 29.4297C5.60718 29.7628 6.28931 30.0899 6.62781 29.9773C6.78699 29.9244 8.70203 28.8927 10.8832 27.6846C13.0646 26.4766 14.922 25.4881 15.0109 25.4881C15.0999 25.4881 16.9575 26.4766 19.139 27.6848C21.3204 28.8928 23.2349 29.9247 23.3929 29.9774C23.7296 30.0899 24.412 29.762 24.5331 29.4297C24.6851 29.0128 24.6211 28.4756 23.866 23.8334L23.1123 19.2007L26.4941 15.7299C30.2579 11.8671 30.3644 11.7073 29.6632 10.9771C29.2964 10.595 29.1644 10.5659 24.8781 9.92041C22.4536 9.55524 20.3594 9.22418 20.2242 9.18488C20.0555 9.1358 19.3577 7.78076 18.0011 4.86835C16.9136 2.53357 15.9036 0.483032 15.7568 0.311646C15.5726 0.0966797 15.3409 0 15.0094 0C14.678 0 14.4463 0.0966797 14.2621 0.311646Z" fill="#333333" fill-opacity="1.000000" fill-rule="evenodd"/>
</svg>
