<svg width="30.000000" height="30.000000" viewBox="0 0 30 30" fill="none" xmlns="http://www.w3.org/2000/svg" xmlns:xlink="http://www.w3.org/1999/xlink">
	<desc>
			Created with Pixso.
	</desc>
	<defs/>
	<path id="Снимок экрана 2023-11-01 в 17.21 1 (Traced)" d="M14.0085 0.16333C13.6459 0.292236 12.1199 1.74908 6.98688 6.86658C3.3797 10.4628 0.348267 13.556 0.250122 13.7405C0.00146484 14.2083 -0.0775146 15.1846 0.0849609 15.7846C0.245422 16.3773 0.895264 17.1396 1.50452 17.45C1.74164 17.5706 2.2049 17.7051 2.53381 17.7486L3.13177 17.8278L3.16711 22.7057L3.20233 27.5836L3.55078 28.2115C3.97534 28.9767 4.63507 29.5604 5.34998 29.8036C6.12384 30.0668 11.422 30.0649 11.7718 29.8014C11.9965 29.632 12.0092 29.4512 12.0652 25.616C12.129 21.2625 12.1307 21.2513 12.8065 20.84C13.1336 20.6409 13.4052 20.6123 14.9766 20.6119C17.953 20.6113 17.8174 20.3884 17.8174 25.277C17.8174 29.1275 17.8708 29.6462 18.2915 29.871C18.4144 29.9366 19.7058 29.9857 21.3104 29.9857C24.4572 29.9857 24.8381 29.9182 25.6616 29.2147C25.9235 28.991 26.2861 28.5061 26.4677 28.1371L26.7976 27.4664L26.8318 22.6472L26.8661 17.8282L27.4651 17.7488C27.7947 17.7051 28.2583 17.5706 28.4955 17.45C29.1047 17.1396 29.7546 16.3773 29.915 15.7846C30.0774 15.1851 29.9987 14.2088 29.7502 13.7405C29.6523 13.556 26.5973 10.4434 22.9612 6.82355C17.3055 1.19318 16.2821 0.223755 15.8804 0.115723C15.25 -0.0537109 14.5701 -0.036499 14.0085 0.16333Z" fill="#333333" fill-opacity="1.000000" fill-rule="evenodd"/>
</svg>
