<svg width="58.000000" height="57.000000" viewBox="0 0 58 57" fill="none" xmlns="http://www.w3.org/2000/svg" xmlns:xlink="http://www.w3.org/1999/xlink">
	<desc>
			Created with Pixso.
	</desc>
	<defs/>
	<path id="Снимок экрана 2023-11-01 в 17.05 1 (Traced)" d="M11.4717 0.365051C7.58643 1.3316 4.07178 4.39893 2.08398 8.55896C0.39502 12.0934 0 13.8549 0 17.855C-0.000488281 20.9389 0.065918 21.3934 0.854004 23.7372C3.38281 31.2555 11.0229 41.7598 21.7988 52.5361C25.5552 56.2927 26.6323 56.9724 28.8701 56.9991C31.3779 57.029 32.354 56.3646 37.4307 51.1722C48.1401 40.2187 54.6484 31.1619 57.146 23.7372C57.9341 21.3934 58.0005 20.9389 58 17.855C58 14.0671 57.6094 12.1629 56.2183 9.16541C53.2217 2.70966 47.5903 -0.738403 41.5513 0.18457C38.0151 0.72522 34.3682 2.72351 30.7471 6.10553L28.9814 7.75446L27.625 6.43628C22.2256 1.19012 16.6226 -0.915955 11.4717 0.365051Z" fill="#C2C2C2" fill-opacity="1.000000" fill-rule="evenodd"/>
</svg>
