<svg width="59.000000" height="31.466675" viewBox="0 0 59 31.4667" fill="none" xmlns="http://www.w3.org/2000/svg" xmlns:xlink="http://www.w3.org/1999/xlink">
	<desc>
			Created with Pixso.
	</desc>
	<defs>
		<clipPath id="clip22_63">
			<rect id="Frame" width="59.000000" height="31.466667" fill="white" fill-opacity="0"/>
		</clipPath>
	</defs>
	<rect id="Frame" width="59.000000" height="31.466667" fill="#FFFFFF" fill-opacity="0"/>
	<g clip-path="url(#clip22_63)">
		<path id="Vector" d="M3.69043 23.8745C3.69043 24.1031 3.875 24.2404 4.19775 24.3776C4.52075 24.5148 4.98193 24.652 5.4895 24.7892C5.99683 24.9264 6.50439 25.1093 6.96558 25.2923C7.4729 25.5209 7.88818 25.8411 8.25732 26.2985C8.62622 26.7559 8.76465 27.3504 8.76465 28.0822C8.76465 29.1799 8.34937 30.0488 7.51904 30.5977C6.68872 31.1465 5.67407 31.4667 4.42847 31.4667C2.26025 31.4667 0.738037 30.6434 -0.0461426 28.9969L2.62939 27.4876C2.90625 28.3109 3.50586 28.7225 4.38232 28.7225C5.12036 28.7225 5.4895 28.4938 5.4895 28.0822C5.4895 27.8535 5.30493 27.7163 4.98193 27.5791C4.61304 27.4419 4.19775 27.3047 3.69043 27.1675C3.18286 27.0303 2.76782 26.8473 2.3064 26.6187C1.84521 26.39 1.33765 26.0698 1.01489 25.6124C0.645752 25.155 0.461182 24.6062 0.461182 23.9659C0.461182 22.914 0.830322 22.045 1.6145 21.4962C2.44482 20.9016 3.41357 20.5814 4.56689 20.5814C5.44336 20.5814 6.22754 20.7643 6.91943 21.1302C7.61133 21.4962 8.21118 22.045 8.62622 22.7768L5.95068 24.1946C5.62793 23.6 5.1665 23.2798 4.56689 23.2798C3.96704 23.2798 3.69043 23.5085 3.69043 23.8745Z" fill="#333333" fill-opacity="1.000000" fill-rule="nonzero"/>
		<path id="Vector" d="M16.0989 23.8289L13.9771 23.8289L13.9771 27.4879C13.9771 27.8995 14.1614 28.1739 14.4844 28.2654C14.8074 28.3569 15.3608 28.4026 16.145 28.3569L16.145 31.1468C14.1614 31.3754 12.7776 31.1468 12.0396 30.5979C11.2554 30.0034 10.8862 28.9971 10.8862 27.4879L10.8862 23.8289L9.22559 23.8289L9.22559 20.8561L10.8862 20.8561L10.8862 18.8894L14.0232 17.9747L14.0232 20.8561L16.145 20.8561L16.145 23.8289L16.0989 23.8289Z" fill="#333333" fill-opacity="1.000000" fill-rule="nonzero"/>
		<path id="Vector" d="M24.772 20.856L27.9089 20.856L27.9089 31.1467L24.772 31.1467L24.772 30.1863C24.1724 31.0095 23.1575 31.4211 21.8198 31.4211C20.7126 31.4211 19.79 31.0552 19.052 30.2777C18.314 29.546 17.9448 28.494 17.9448 27.1677L17.9448 20.856L21.0815 20.856L21.0815 26.7103C21.0815 27.3049 21.2661 27.7622 21.5891 28.0824C21.9121 28.4025 22.3733 28.5855 22.8806 28.5855C23.4805 28.5855 23.9417 28.4025 24.3108 28.0366C24.6797 27.6708 24.8181 27.1677 24.8181 26.4359L24.8181 20.856L24.772 20.856Z" fill="#333333" fill-opacity="1.000000" fill-rule="nonzero"/>
		<path id="Vector" d="M37.7341 16.7397L40.8708 16.7397L40.8708 31.1467L37.7341 31.1467L37.7341 30.1862C36.9961 31.0095 35.9812 31.4211 34.6433 31.4211C33.2595 31.4211 32.1062 30.918 31.1375 29.866C30.1687 28.8141 29.7075 27.5335 29.7075 26.0242C29.7075 24.5149 30.1687 23.2343 31.1375 22.1823C32.1062 21.1304 33.2595 20.6273 34.6433 20.6273C35.9812 20.6273 36.9961 21.0389 37.7341 21.8622L37.7341 16.7397ZM33.4441 27.8536C33.9053 28.311 34.5051 28.5397 35.2432 28.5397C35.9812 28.5397 36.5808 28.311 37.0422 27.8536C37.5034 27.3962 37.7341 26.8017 37.7341 26.0242C37.7341 25.2466 37.5034 24.6521 37.0422 24.1947C36.5808 23.7374 35.9812 23.5087 35.2432 23.5087C34.5051 23.5087 33.9053 23.7374 33.4441 24.1947C32.9827 24.6521 32.7522 25.2466 32.7522 26.0242C32.7983 26.8017 32.9827 27.3962 33.4441 27.8536Z" fill="#333333" fill-opacity="1.000000" fill-rule="nonzero"/>
		<path id="Vector" d="M43.1313 31.1467L43.1313 20.856L46.2681 20.856L46.2681 31.1467L43.1313 31.1467Z" fill="#333333" fill-opacity="1.000000" fill-rule="nonzero"/>
		<path id="Vector" d="M57.3855 29.8662C56.3245 30.9182 55.033 31.4212 53.4646 31.4212C51.896 31.4212 50.6506 30.9182 49.5435 29.8662C48.4363 28.8143 47.929 27.5336 47.929 26.0244C47.929 24.515 48.4824 23.2344 49.5435 22.1825C50.6045 21.1306 51.896 20.6274 53.4646 20.6274C55.033 20.6274 56.2783 21.1306 57.3855 22.1825C58.4927 23.2344 59 24.515 59 26.0244C59 27.5336 58.4465 28.8143 57.3855 29.8662ZM51.804 27.7623C52.2651 28.2197 52.8186 28.4484 53.5107 28.4484C54.2026 28.4484 54.7561 28.2197 55.2175 27.7623C55.6787 27.3049 55.9094 26.7104 55.9094 26.0244C55.9094 25.2925 55.6787 24.7437 55.2175 24.2864C54.7561 23.829 54.2026 23.6003 53.5107 23.6003C52.8186 23.6003 52.2651 23.829 51.804 24.2864C51.3425 24.7437 51.1118 25.3383 51.1118 26.0244C51.1118 26.7104 51.3425 27.3049 51.804 27.7623Z" fill="#333333" fill-opacity="1.000000" fill-rule="nonzero"/>
		<path id="Vector" d="M6.59692 4.43665C7.98071 4.43665 9.13403 4.93976 10.1028 5.99164C11.0715 7.04358 11.5327 8.32422 11.5327 9.83356C11.5327 11.3428 11.0715 12.6692 10.1028 13.7211C9.13403 14.7731 7.98071 15.2762 6.59692 15.2762C5.25928 15.2762 4.24438 14.8646 3.5061 14.0413L3.5061 15.0018L0.415527 15.0018L0.415527 0.640503L3.55225 0.640503L3.55225 5.71722C4.24438 4.84827 5.30518 4.43665 6.59692 4.43665ZM4.19824 11.7087C4.65942 12.1661 5.25928 12.3948 5.95117 12.3948C6.68921 12.3948 7.24268 12.1661 7.7041 11.7087C8.16528 11.2513 8.396 10.6568 8.396 9.87927C8.396 9.10175 8.16528 8.5072 7.7041 8.0498C7.24268 7.59247 6.64307 7.36377 5.95117 7.36377C5.21313 7.36377 4.65942 7.59247 4.19824 8.0498C3.73682 8.5072 3.5061 9.10175 3.5061 9.87927C3.5061 10.6568 3.73682 11.2513 4.19824 11.7087Z" fill="#333333" fill-opacity="1.000000" fill-rule="nonzero"/>
		<path id="Vector" d="M13.3315 15.0473L13.3315 0L16.4683 0L16.4683 15.0473L13.3315 15.0473Z" fill="#333333" fill-opacity="1.000000" fill-rule="nonzero"/>
		<path id="Vector" d="M26.2937 4.75647L29.4304 4.75647L29.4304 15.0472L26.2937 15.0472L26.2937 14.0867C25.5557 14.9099 24.5408 15.3216 23.2029 15.3216C21.8191 15.3216 20.6658 14.8185 19.697 13.7665C18.7283 12.7146 18.2671 11.434 18.2671 9.92468C18.2671 8.41534 18.7283 7.13477 19.697 6.08282C20.6658 5.03088 21.8191 4.52777 23.2029 4.52777C24.5408 4.52777 25.5557 4.93939 26.2937 5.76263L26.2937 4.75647ZM22.0037 11.7084C22.4648 12.1658 23.0647 12.3944 23.8027 12.3944C24.5408 12.3944 25.1404 12.1658 25.6018 11.7084C26.063 11.251 26.2937 10.6564 26.2937 9.87891C26.2937 9.10144 26.063 8.50684 25.6018 8.0495C25.1404 7.5921 24.5408 7.3634 23.8027 7.3634C23.0647 7.3634 22.4648 7.5921 22.0037 8.0495C21.5422 8.50684 21.3118 9.10144 21.3118 9.87891C21.3118 10.6564 21.5422 11.251 22.0037 11.7084Z" fill="#333333" fill-opacity="1.000000" fill-rule="nonzero"/>
		<path id="Vector" d="M36.6738 15.3217C35.1055 15.3217 33.7676 14.8186 32.7527 13.7667C31.6917 12.7148 31.1843 11.4341 31.1843 9.87909C31.1843 8.32404 31.6917 7.04346 32.7527 5.99152C33.8137 4.93958 35.1055 4.43646 36.6738 4.43646C37.6887 4.43646 38.5652 4.66516 39.4417 5.16827C40.272 5.67133 40.9177 6.26593 41.3789 7.08917L38.6575 8.64423C38.2883 7.8667 37.5964 7.50079 36.6277 7.50079C35.9358 7.50079 35.3821 7.72949 34.967 8.18683C34.5056 8.64423 34.321 9.19305 34.321 9.9248C34.321 10.6566 34.5518 11.2054 34.967 11.6628C35.4282 12.1202 35.9819 12.3489 36.6277 12.3489C37.5964 12.3489 38.2883 11.983 38.6575 11.2054L41.3789 12.7605C40.9177 13.5837 40.272 14.2241 39.4417 14.6814C38.5652 15.093 37.6426 15.3217 36.6738 15.3217Z" fill="#333333" fill-opacity="1.000000" fill-rule="nonzero"/>
		<path id="Vector" d="M52.5422 15.0475L48.9902 15.0475L45.6687 10.5196L45.6687 15.0475L42.532 15.0475L42.532 0.640503L45.6687 0.640503L45.6687 9.28467L48.8057 4.75677L52.45 4.75677L48.6672 9.87927L52.5422 15.0475Z" fill="#333333" fill-opacity="1.000000" fill-rule="nonzero"/>
		<path id="Vector" d="M54.4329 11.1595L58.1233 11.1595L58.1233 14.8185L54.4329 14.8185L54.4329 11.1595Z" fill="#333333" fill-opacity="1.000000" fill-rule="evenodd"/>
	</g>
</svg>
