<svg width="57.000000" height="57.000000" viewBox="0 0 57 57" fill="none" xmlns="http://www.w3.org/2000/svg" xmlns:xlink="http://www.w3.org/1999/xlink">
	<desc>
			Created with Pixso.
	</desc>
	<defs/>
	<path id="Снимок экрана 2023-11-01 в 17.22 1 (Traced)" d="M27.0981 0.592163C26.8193 0.917725 24.9004 4.81378 22.834 9.24988C20.2646 14.7653 18.9292 17.3594 18.6099 17.4541C18.353 17.5305 14.374 18.16 9.76758 18.8533C1.74463 20.0605 1.36377 20.1434 0.705078 20.8275C-0.683594 22.2692 -0.623047 22.3611 6.56934 29.7542L13.1211 36.489L11.6899 45.2875C10.2559 54.1036 10.1343 55.1243 10.4229 55.9165C10.6538 56.5492 11.9497 57.1708 12.5928 56.9569C12.895 56.8563 16.5337 54.8961 20.6782 52.6008C24.8228 50.3055 28.3516 48.4274 28.5205 48.4274C28.6899 48.4274 32.2192 50.3055 36.3643 52.6011C40.5088 54.8964 44.146 56.8569 44.4468 56.9572C45.0864 57.1708 46.3828 56.5479 46.6128 55.9165C46.9019 55.1243 46.7798 54.1036 45.3452 45.2835L43.9136 36.4813L50.3389 29.8868C57.4902 22.5474 57.6924 22.244 56.3599 20.8564C55.6631 20.1305 55.4121 20.0753 47.2681 18.8488C42.6621 18.155 38.6826 17.5259 38.4263 17.4512C38.1055 17.358 36.7798 14.7835 34.2021 9.24988C32.1357 4.81378 30.2168 0.917725 29.938 0.592163C29.5879 0.183716 29.1479 0 28.5181 0C27.8882 0 27.4478 0.183716 27.0981 0.592163Z" fill="#C2C2C2" fill-opacity="1.000000" fill-rule="evenodd"/>
</svg>
